<?xml version="1.0" encoding="utf-8"?>
<!-- Generator: Adobe Illustrator 24.0.2, SVG Export Plug-In . SVG Version: 6.00 Build 0)  -->
<svg version="1.1" id="Layer_1" xmlns="http://www.w3.org/2000/svg" xmlns:xlink="http://www.w3.org/1999/xlink" x="0px" y="0px"
	 viewBox="0 0 31.9 32" style="enable-background:new 0 0 31.9 32;" xml:space="preserve">
<style type="text/css">
	.st0{fill:#FFFFFF;}
</style>
<g>
	<path d="M29.4,4.4l-7.3,6.7l-2.3,0.8h-7.9l-2.3-0.8L2.3,4.4l-2.2,2l0.4,8.2l4.8,9.5c3.3,1.6,6.7,3,10.6,3s7.3-1.4,10.6-3l4.8-9.5
		l0.4-8.2L29.4,4.4z M5.7,23.7L1,14.5l-0.1-2.2l5.6,11.9C6.2,24,5.9,23.9,5.7,23.7z M7.1,24.4L0.9,11.3L0.8,6.7L1.6,6L9,25.3
		C8.5,25,7.6,24.6,7.1,24.4z M9.9,25.5L2.5,5.7L9,12.6l3.5,13.5C11.6,26,10.8,25.7,9.9,25.5z M17.5,26.4c-0.6,0.1-1.1,0.1-1.7,0.1
		c-0.6,0-1.1,0-1.7-0.1l-0.8-0.8l-2.5-11.3l1.4-1.4h7.2l1.4,1.4l-2.5,11.3L17.5,26.4z M19.2,26.1l3.5-13.5l6.5-6.9l-7.4,19.7
		C20.9,25.7,20.1,26,19.2,26.1z M30.7,14.6L26,23.8c-0.3,0.1-0.6,0.3-0.9,0.4l5.6-11.9V14.6z M30.8,11.3l-6.2,13.1
		c-0.5,0.2-1.4,0.6-1.9,0.8L30,6l0.9,0.7L30.8,11.3z"/>
</g>
<path class="st0" d="M32,4.5l-2.3-2c-0.1-0.1-0.4-0.1-0.5,0L22,9.2l-2.2,0.8H12L9.8,9.2L2.6,2.5c-0.1-0.1-0.4-0.1-0.5,0l-2.2,2
	c-0.1,0.1-0.1,0.2-0.1,0.3L0.2,13c0,0.1,0,0.1,0,0.2L5,22.7c0,0.1,0.1,0.1,0.2,0.2c3,1.5,6.6,3,10.8,3c4.1,0,7.7-1.6,10.8-3
	c0.1,0,0.1-0.1,0.2-0.2l4.8-9.5c0,0,0-0.1,0-0.2l0.4-8.2C32.1,4.7,32.1,4.6,32,4.5z M30.4,12.4v0.5l-3.2,6.2L30.4,12.4z M2.7,15.3
	l-1.3-2.5l0-0.2L2.7,15.3z M8.7,11.2L12,24c-0.3-0.1-0.7-0.2-1-0.3c-0.3-0.1-0.5-0.1-0.8-0.2L3.6,5.7L8.7,11.2z M8.3,22.9
	c-0.3-0.2-0.7-0.3-0.9-0.4L1.3,9.6L1.2,5.3L1.5,5L8.3,22.9z M13.7,23.8l-2.4-11l1.1-1.1h6.9l1.1,1.1l-2.4,11l-0.6,0.6
	c-0.5,0.1-1,0.1-1.5,0.1s-1,0-1.5-0.1L13.7,23.8z M28.2,5.7l-6.7,17.8l-0.2,0.1c-0.6,0.2-1.1,0.4-1.6,0.5l3.3-12.9L28.2,5.7z
	 M30.6,5.3l-0.1,4.3l-6.1,12.9c-0.2,0.1-0.5,0.2-0.8,0.3c-0.1,0-0.1,0-0.2,0.1L30.2,5L30.6,5.3z"/>
</svg>
