<?xml version="1.0" encoding="utf-8"?>
<!-- Generator: Adobe Illustrator 24.0.2, SVG Export Plug-In . SVG Version: 6.00 Build 0)  -->
<svg version="1.1" id="Layer_1" xmlns="http://www.w3.org/2000/svg" xmlns:xlink="http://www.w3.org/1999/xlink" x="0px" y="0px"
	 viewBox="0 0 70 70" style="enable-background:new 0 0 70 70;" xml:space="preserve">
<style type="text/css">
	.st0{opacity:4.000000e-02;}
	.st1{fill:#FFFFFF;}
	.st2{stroke:#FFFFFF;stroke-width:1.7008;stroke-miterlimit:10;}
</style>
<g class="st0">
	<g>
		<circle cx="48.1" cy="35" r="3.6"/>
	</g>
	<g>
		<path d="M48.1,37.6c-0.7,0-1.4-0.3-1.9-0.8c-1-1-1-2.7,0-3.7c0.5-0.5,1.2-0.8,1.9-0.8s1.4,0.3,1.9,0.8c1,1,1,2.7,0,3.7
			C49.5,37.4,48.8,37.6,48.1,37.6z"/>
		<path class="st1" d="M48.1,32.9c0.6,0,1.1,0.2,1.5,0.6c0.4,0.4,0.6,0.9,0.6,1.5s-0.2,1.1-0.6,1.5c-0.4,0.4-0.9,0.6-1.5,0.6
			s-1.1-0.2-1.5-0.6c-0.8-0.8-0.8-2.2,0-3C47,33.1,47.5,32.9,48.1,32.9 M48.1,31.9c-0.8,0-1.6,0.3-2.2,0.9c-1.2,1.2-1.2,3.2,0,4.5
			c0.6,0.6,1.4,0.9,2.2,0.9s1.6-0.3,2.2-0.9c1.2-1.2,1.2-3.2,0-4.5C49.7,32.2,48.9,31.9,48.1,31.9L48.1,31.9z"/>
	</g>
	<g>
		<circle cx="35" cy="48.1" r="3.6"/>
	</g>
	<g>
		<path d="M35,50.8c-0.7,0-1.4-0.3-1.9-0.8c-1-1-1-2.7,0-3.7c0.5-0.5,1.2-0.8,1.9-0.8s1.4,0.3,1.9,0.8c1,1,1,2.7,0,3.7
			C36.4,50.5,35.7,50.8,35,50.8z"/>
		<path class="st1" d="M35,46c0.6,0,1.1,0.2,1.5,0.6c0.8,0.8,0.8,2.2,0,3c-0.4,0.4-0.9,0.6-1.5,0.6s-1.1-0.2-1.5-0.6
			c-0.8-0.8-0.8-2.2,0-3C33.9,46.2,34.4,46,35,46 M35,45c-0.8,0-1.6,0.3-2.2,0.9c-1.2,1.2-1.2,3.2,0,4.5c0.6,0.6,1.4,0.9,2.2,0.9
			s1.6-0.3,2.2-0.9c1.2-1.2,1.2-3.2,0-4.5C36.6,45.3,35.8,45,35,45L35,45z"/>
	</g>
	<g>
		<circle cx="21.9" cy="35" r="3.6"/>
	</g>
	<g>
		<path d="M21.9,37.6c-0.7,0-1.4-0.3-1.9-0.8c-1-1-1-2.7,0-3.7c0.5-0.5,1.2-0.8,1.9-0.8c0.7,0,1.4,0.3,1.9,0.8c1,1,1,2.7,0,3.7
			C23.3,37.4,22.6,37.6,21.9,37.6z"/>
		<path class="st1" d="M21.9,32.9c0.6,0,1.1,0.2,1.5,0.6c0.4,0.4,0.6,0.9,0.6,1.5s-0.2,1.1-0.6,1.5s-0.9,0.6-1.5,0.6
			s-1.1-0.2-1.5-0.6c-0.4-0.4-0.6-0.9-0.6-1.5s0.2-1.1,0.6-1.5S21.3,32.9,21.9,32.9 M21.9,31.9c-0.8,0-1.6,0.3-2.2,0.9
			c-1.2,1.2-1.2,3.2,0,4.5c0.6,0.6,1.4,0.9,2.2,0.9s1.6-0.3,2.2-0.9c1.2-1.2,1.2-3.2,0-4.5C23.5,32.2,22.7,31.9,21.9,31.9L21.9,31.9
			z"/>
	</g>
	<g>
		<circle cx="35" cy="21.9" r="3.6"/>
	</g>
	<g>
		<path d="M35,24.5c-0.7,0-1.4-0.3-1.9-0.8s-0.8-1.2-0.8-1.9c0-0.7,0.3-1.4,0.8-1.9s1.2-0.8,1.9-0.8s1.4,0.3,1.9,0.8
			c1,1,1,2.7,0,3.7C36.4,24.3,35.7,24.5,35,24.5z"/>
		<path class="st1" d="M35,19.7c0.6,0,1.1,0.2,1.5,0.6s0.6,0.9,0.6,1.5s-0.2,1.1-0.6,1.5C36.1,23.8,35.6,24,35,24s-1.1-0.2-1.5-0.6
			s-0.6-0.9-0.6-1.5s0.2-1.1,0.6-1.5C33.9,20,34.4,19.7,35,19.7 M35,18.7c-0.8,0-1.6,0.3-2.2,0.9c-1.2,1.2-1.2,3.2,0,4.5
			c0.6,0.6,1.4,0.9,2.2,0.9s1.6-0.3,2.2-0.9c1.2-1.2,1.2-3.2,0-4.5C36.6,19.1,35.8,18.7,35,18.7L35,18.7z"/>
	</g>
</g>
<g class="st0">
	<polygon class="st2" points="65.2,63.5 56.3,54.6 55.8,55.1 49.1,48.4 48.5,49.1 55.2,55.7 54.7,56.3 63.5,65.1 86.2,89.8 
		89.8,86.2 	"/>
	<polygon class="st2" points="16.6,15 6.5,5 -16.1,-19.7 -19.7,-16.1 4.9,6.6 14.9,16.7 15.5,16.1 21.4,22 22,21.4 16.1,15.5 	"/>
	<polygon class="st2" points="49.1,22 55.3,15.7 55.9,16.2 65.4,6.7 89.8,-16.2 86.2,-19.8 63.8,5.1 54.2,14.6 54.7,15.1 48.5,21.4 
			"/>
	<polygon class="st2" points="21.3,48.4 15.1,54.7 14.5,54.2 5.1,63.6 -19.8,86.1 -16.2,89.7 6.8,65.3 16.2,55.8 15.7,55.3 
		21.9,49.1 	"/>
</g>
</svg>
